<svg xmlns="http://www.w3.org/2000/svg" data-name="Layer 1" viewBox="0 0 512 512" alt="upload" class="upload-svg"><path d="M340.7061,253.5177a21.0039,21.0039,0,0,1-29.7,0l-37.36-37.37v130.4a21,21,0,1,1-42,0v-130.4l-37.37,37.37a21.0011,21.0011,0,1,1-29.7-29.7l73.22-73.22a21.0035,21.0035,0,0,1,29.7,0l73.21,73.22A21.0041,21.0041,0,0,1,340.7061,253.5177Z" style="fill:#5b9aff"/><path d="M439.086,400.7277a20.9985,20.9985,0,1,1-33.43-25.42,192.0478,192.0478,0,0,0-17.24-251.77c-74.85-74.87-196.66-74.88-271.53-.03a192.0528,192.0528,0,0,0-17.29,251.76,20.9985,20.9985,0,1,1-33.43,25.42,234.019,234.019,0,0,1,186.47-375.4h.03a234.0221,234.0221,0,0,1,186.42,375.44Z" style="fill:#5b9aff"/><path d="M485.6461,470.0377a21.0039,21.0039,0,0,1-21,21h-424a21,21,0,0,1,0-42h424A21.004,21.004,0,0,1,485.6461,470.0377Z" style="fill:#5b9aff"/></svg>